<svg width="30" height="30" viewBox="0 0 30 30" fill="none" xmlns="http://www.w3.org/2000/svg">
<path d="M15 15C18.4518 15 21.25 12.2018 21.25 8.75C21.25 5.29822 18.4518 2.5 15 2.5C11.5482 2.5 8.75 5.29822 8.75 8.75C8.75 12.2018 11.5482 15 15 15Z" stroke="#00CC99" stroke-width="2"/>
<path d="M21.25 17.5H21.69C22.6039 17.5003 23.4862 17.8342 24.1712 18.4391C24.8562 19.044 25.2967 19.8782 25.41 20.785L25.8988 24.69C25.9427 25.0418 25.9114 25.3989 25.8068 25.7376C25.7022 26.0764 25.5267 26.389 25.292 26.6547C25.0574 26.9205 24.7689 27.1333 24.4457 27.279C24.1225 27.4248 23.772 27.5001 23.4175 27.5H6.58251C6.22799 27.5001 5.87751 27.4248 5.55432 27.279C5.23114 27.1333 4.94264 26.9205 4.70798 26.6547C4.47333 26.389 4.29787 26.0764 4.19327 25.7376C4.08867 25.3989 4.0573 25.0418 4.10126 24.69L4.58876 20.785C4.70214 19.8778 5.14303 19.0432 5.82855 18.4383C6.51407 17.8333 7.39699 17.4996 8.31127 17.5H8.75001" stroke="#00CC99" stroke-width="2" stroke-linecap="round" stroke-linejoin="round"/>
</svg>
