<svg width="40" height="40" viewBox="0 0 40 40" fill="none" xmlns="http://www.w3.org/2000/svg">
<path d="M13.75 8.75C14.7446 8.75 15.6984 9.14509 16.4017 9.84835C17.1049 10.5516 17.5 11.5054 17.5 12.5V27.5C17.5 28.4946 17.1049 29.4484 16.4017 30.1517C15.6984 30.8549 14.7446 31.25 13.75 31.25C12.7554 31.25 11.8016 30.8549 11.0983 30.1517C10.3951 29.4484 10 28.4946 10 27.5V12.5C10 11.5054 10.3951 10.5516 11.0983 9.84835C11.8016 9.14509 12.7554 8.75 13.75 8.75V8.75ZM26.25 8.75C27.2446 8.75 28.1984 9.14509 28.9017 9.84835C29.6049 10.5516 30 11.5054 30 12.5V27.5C30 28.4946 29.6049 29.4484 28.9017 30.1517C28.1984 30.8549 27.2446 31.25 26.25 31.25C25.2554 31.25 24.3016 30.8549 23.5983 30.1517C22.8951 29.4484 22.5 28.4946 22.5 27.5V12.5C22.5 11.5054 22.8951 10.5516 23.5983 9.84835C24.3016 9.14509 25.2554 8.75 26.25 8.75Z" fill="#F8F8F8"/>
</svg>
