<svg id="visual" viewBox="0 0 834 963" width="834" height="963" xmlns="http://www.w3.org/2000/svg" xmlns:xlink="http://www.w3.org/1999/xlink" version="1.1"><rect x="0" y="0" width="834" height="963" fill="#0F1010"></rect><defs><linearGradient id="grad1_0" x1="0%" y1="0%" x2="100%" y2="100%"><stop offset="30%" stop-color="#0f1010" stop-opacity="1"></stop><stop offset="70%" stop-color="#0f1010" stop-opacity="1"></stop></linearGradient></defs><defs><linearGradient id="grad2_0" x1="0%" y1="0%" x2="100%" y2="100%"><stop offset="30%" stop-color="#0f1010" stop-opacity="1"></stop><stop offset="70%" stop-color="#0f1010" stop-opacity="1"></stop></linearGradient></defs><g transform="translate(834, 0)"><path d="M0 191.1C-22.6 193.6 -45.3 196.2 -59.1 181.7C-72.8 167.3 -77.7 135.8 -85.8 118.1C-93.9 100.4 -105.2 96.5 -123.8 89.9C-142.4 83.4 -168.3 74.1 -180.7 58.7C-193.1 43.3 -192.1 21.6 -191.1 0L0 0Z" fill="#74CCC7"></path></g><g transform="translate(0, 963)"><path d="M0 -191.1C17.2 -179.6 34.5 -168.2 53.2 -163.6C71.8 -159 91.9 -161.1 112.3 -154.6C132.8 -148 153.6 -132.7 153.7 -111.7C153.8 -90.6 133.2 -63.8 136 -44.2C138.8 -24.6 164.9 -12.3 191.1 0L0 0Z" fill="#74CCC7"></path></g></svg>