<svg width="834" height="1194" viewBox="0 0 834 1194" fill="none" xmlns="http://www.w3.org/2000/svg">
<g clip-path="url(#clip0_9:14)">
<path d="M917 317.571C867.839 295.868 818.558 274.165 761.004 257.619C703.451 241.192 637.503 229.921 608.247 189.753C579.11 149.585 586.544 80.4005 571.316 24.1655C556.208 -32.0695 518.319 -75.5947 480.429 -119H917V317.571Z" fill="#74CCC7"/>
<path d="M-83 876.084C-40.4341 912.775 2.2518 949.585 61.4844 963.734C120.837 977.882 196.976 969.369 225.753 1003.9C254.41 1038.55 235.945 1116.37 249.374 1175C262.803 1233.64 308.127 1273.21 353.571 1312.65H-83V876.084Z" fill="#74CCC7"/>
</g>
<defs>
<clipPath id="clip0_9:14">
<rect width="1000" height="1431.65" fill="white" transform="translate(-83 -119)"/>
</clipPath>
</defs>
</svg>
