<svg id="visual" viewBox="0 0 1080 1080" width="1080" height="1080" xmlns="http://www.w3.org/2000/svg" xmlns:xlink="http://www.w3.org/1999/xlink" version="1.1"><rect x="0" y="0" width="1080" height="1080" fill="#0F1010"></rect><defs><linearGradient id="grad1_0" x1="0%" y1="0%" x2="100%" y2="100%"><stop offset="30%" stop-color="#0f1010" stop-opacity="1"></stop><stop offset="70%" stop-color="#0f1010" stop-opacity="1"></stop></linearGradient></defs><defs><linearGradient id="grad2_0" x1="0%" y1="0%" x2="100%" y2="100%"><stop offset="30%" stop-color="#0f1010" stop-opacity="1"></stop><stop offset="70%" stop-color="#0f1010" stop-opacity="1"></stop></linearGradient></defs><g transform="translate(1080, 0)"><path d="M0 229.1C-26.6 231.1 -53.3 233.1 -70.8 217.9C-88.3 202.7 -96.7 170.2 -109.3 150.5C-121.9 130.7 -138.8 123.7 -153.7 111.7C-168.7 99.6 -181.8 82.5 -194 63C-206.3 43.6 -217.7 21.8 -229.1 0L0 0Z" fill="#74CCC7"></path></g><g transform="translate(0, 1080)"><path d="M0 -229.1C25.1 -229.3 50.1 -229.5 70.8 -217.9C91.5 -206.3 107.8 -182.8 116.4 -160.2C124.9 -137.5 125.7 -115.7 139.2 -101.1C152.6 -86.5 178.8 -79.3 195.9 -63.7C213 -48 221.1 -24 229.1 0L0 0Z" fill="#74CCC7"></path></g></svg>