<svg id="visual" viewBox="0 0 1080 1080" width="1080" height="1080" xmlns="http://www.w3.org/2000/svg" xmlns:xlink="http://www.w3.org/1999/xlink" version="1.1"><rect x="0" y="0" width="1080" height="1080" fill="#001220"></rect><defs><linearGradient id="grad1_0" x1="0%" y1="0%" x2="100%" y2="100%"><stop offset="30%" stop-color="#001220" stop-opacity="1"></stop><stop offset="70%" stop-color="#001220" stop-opacity="1"></stop></linearGradient></defs><defs><linearGradient id="grad2_0" x1="0%" y1="0%" x2="100%" y2="100%"><stop offset="30%" stop-color="#001220" stop-opacity="1"></stop><stop offset="70%" stop-color="#001220" stop-opacity="1"></stop></linearGradient></defs><g transform="translate(1080, 0)"><path d="M0 229.1C-25.4 224.9 -50.8 220.6 -65.8 202.6C-80.8 184.5 -85.4 152.7 -100.5 138.3C-115.6 124 -141.3 127.2 -164.2 119.3C-187.2 111.4 -207.5 92.5 -217.9 70.8C-228.3 49.1 -228.7 24.5 -229.1 0L0 0Z" fill="#74CCC7"></path></g><g transform="translate(0, 1080)"><path d="M0 -229.1C27.7 -231.9 55.4 -234.8 70.8 -217.9C86.2 -201 89.4 -164.4 108.2 -148.9C126.9 -133.3 161.2 -138.8 173.9 -126.4C186.7 -114 177.9 -83.7 183.6 -59.6C189.2 -35.6 209.1 -17.8 229.1 0L0 0Z" fill="#74CCC7"></path></g></svg>