<svg width="25" height="26" viewBox="0 0 25 26" fill="none" xmlns="http://www.w3.org/2000/svg">
<path d="M3.4375 20.8125C3.4375 21.0611 3.53627 21.2996 3.71209 21.4754C3.8879 21.6512 4.12636 21.75 4.375 21.75C4.62364 21.75 4.8621 21.6512 5.03791 21.4754C5.21373 21.2996 5.3125 21.0611 5.3125 20.8125V5.1875C5.3125 4.93886 5.21373 4.7004 5.03791 4.52459C4.8621 4.34877 4.62364 4.25 4.375 4.25C4.12636 4.25 3.8879 4.34877 3.71209 4.52459C3.53627 4.7004 3.4375 4.93886 3.4375 5.1875V20.8125Z" fill="white"/>
<path d="M20.9376 19.9988C20.9375 20.2815 20.8607 20.5589 20.7154 20.8014C20.5701 21.044 20.3617 21.2425 20.1124 21.3759C19.8632 21.5094 19.5824 21.5727 19.3 21.5591C19.0176 21.5455 18.7441 21.4555 18.5088 21.2988L8.01134 14.3C7.79734 14.1573 7.62188 13.964 7.50052 13.7372C7.37917 13.5104 7.31567 13.2572 7.31567 13C7.31567 12.7428 7.37917 12.4896 7.50052 12.2628C7.62188 12.036 7.79734 11.8427 8.01134 11.7L18.5088 4.70126C18.7441 4.54451 19.0176 4.45455 19.3 4.44096C19.5824 4.42736 19.8632 4.49065 20.1124 4.62407C20.3617 4.75749 20.5701 4.95605 20.7154 5.19858C20.8607 5.44111 20.9375 5.71853 20.9376 6.00126V20V19.9988Z" fill="white"/>
</svg>
