<svg width="361" height="335" viewBox="0 0 361 335" fill="none" xmlns="http://www.w3.org/2000/svg">
<circle cx="167.154" cy="167.154" r="166.154" stroke="url(#paint0_radial_11:228)" stroke-width="2"/>
<circle cx="167.154" cy="167.154" r="160.615" stroke="#717171" stroke-width="2"/>
<circle cx="333.308" cy="167.154" r="27.6923" fill="url(#paint1_radial_11:228)"/>
<path d="M76.8423 184.159H101.247V192H114.283V184.159H120.065V173.574H114.283V141.818H97.0327L76.8423 173.574V184.159ZM101.541 173.574H90.2699V173.182L101.149 155.932H101.541V173.574ZM147.637 193.372C161.285 193.397 169.763 183.62 169.788 167.007C169.812 150.492 161.285 141.132 147.637 141.132C133.965 141.132 125.536 150.443 125.487 167.007C125.438 183.547 133.965 193.348 147.637 193.372ZM147.637 182.297C142.933 182.297 139.551 177.568 139.6 167.007C139.649 156.691 142.933 152.109 147.637 152.109C152.342 152.109 155.65 156.691 155.674 167.007C155.699 177.568 152.342 182.297 147.637 182.297ZM189.807 170.83C189.831 167.105 191.987 164.851 195.295 164.851C198.75 164.851 200.71 167.105 200.686 170.83V192H214.211V167.987C214.236 159.754 209.041 153.874 201.078 153.874C195.516 153.874 191.399 156.716 189.709 161.518H189.316V141.818H176.281V192H189.807V170.83ZM221.28 192H254.31V181.709H238.726V181.513L253.722 162.597V154.364H221.869V164.655H237.746V164.851L221.28 184.551V192Z" fill="white"/>
<defs>
<radialGradient id="paint0_radial_11:228" cx="0" cy="0" r="1" gradientUnits="userSpaceOnUse" gradientTransform="translate(65.2462 297.308) rotate(-52.2809) scale(321.377)">
<stop stop-color="#FFB23F"/>
<stop offset="1" stop-color="#00CC99"/>
</radialGradient>
<radialGradient id="paint1_radial_11:228" cx="0" cy="0" r="1" gradientUnits="userSpaceOnUse" gradientTransform="translate(333.308 167.154) rotate(90) scale(27.6923)">
<stop stop-color="#F9FD2E"/>
<stop offset="1" stop-color="#3FFFF3"/>
</radialGradient>
</defs>
</svg>
