<svg width="834" height="704" viewBox="0 0 834 704" fill="none" xmlns="http://www.w3.org/2000/svg">
<g clip-path="url(#clip0_10:193)">
<path d="M-253 569V589H-134V628H-14V598H105V580H225V637H344V600H463V574H583V586H702V553H822V561H941V834H822H702H583H463H344H225H105H-14H-134H-253V569Z" fill="#9900FF"/>
<path d="M-253 634V624H-134V679H-14V631H105V638H225V656H344V647H463V669H583V653H702V697H822V615H941V834H822H702H583H463H344H225H105H-14H-134H-253V634Z" fill="#8200D9"/>
<path d="M-253 727V740H-134V686H-14V720H105V675H225V691H344V706H463V743H583V733H702V725H822V745H941V834H822H702H583H463H344H225H105H-14H-134H-253V727Z" fill="#6C00B4"/>
</g>
<defs>
<clipPath id="clip0_10:193">
<rect width="834" height="1194" fill="white" transform="translate(941) rotate(90)"/>
</clipPath>
</defs>
</svg>
