<svg width="834" height="230" viewBox="0 0 834 230" fill="none" xmlns="http://www.w3.org/2000/svg">
<path d="M-35 102.353L-13.5 104.048C8 105.872 51 109.261 93.8 98.1827C136.7 87.1043 179.3 61.559 222.2 69.1184C265 76.6777 308 117.602 350.8 133.242C393.7 148.882 436.3 139.238 479.2 115.387C522 91.5357 565 53.2177 607.8 50.22C650.7 47.2224 693.3 79.2844 736.2 76.9384C779 74.5924 822 37.5777 843.5 19.2007L865 0.693359V278.303H843.5C822 278.303 779 278.303 736.2 278.303C693.3 278.303 650.7 278.303 607.8 278.303C565 278.303 522 278.303 479.2 278.303C436.3 278.303 393.7 278.303 350.8 278.303C308 278.303 265 278.303 222.2 278.303C179.3 278.303 136.7 278.303 93.8 278.303C51 278.303 8 278.303 -13.5 278.303H-35V102.353Z" fill="#00CC99"/>
</svg>
