<svg width="834" height="735" viewBox="0 0 834 735" fill="none" xmlns="http://www.w3.org/2000/svg">
<g clip-path="url(#clip0_2:68)">
<path d="M-35 607.353L-13.5 609.048C8 610.872 51 614.261 93.8 603.183C136.7 592.104 179.3 566.559 222.2 574.118C265 581.678 308 622.602 350.8 638.242C393.7 653.882 436.3 644.238 479.2 620.387C522 596.536 565 558.218 607.8 555.22C650.7 552.222 693.3 584.284 736.2 581.938C779 579.592 822 542.578 843.5 524.201L865 505.693V783.303H843.5C822 783.303 779 783.303 736.2 783.303C693.3 783.303 650.7 783.303 607.8 783.303C565 783.303 522 783.303 479.2 783.303C436.3 783.303 393.7 783.303 350.8 783.303C308 783.303 265 783.303 222.2 783.303C179.3 783.303 136.7 783.303 93.8 783.303C51 783.303 8 783.303 -13.5 783.303H-35V607.353Z" fill="#00CC99"/>
</g>
<defs>
<clipPath id="clip0_2:68">
<rect width="900" height="782" fill="white" transform="translate(-35)"/>
</clipPath>
</defs>
</svg>
